<svg
    
    viewBox="0 0 1280 237"
    fill="none"
    xmlns="http://www.w3.org/2000/svg"
    id="wave"
    version="1.1"
>
    <g filter="url(#filter0_d_100_566)">
        <path
            fill-rule="evenodd"
            clip-rule="evenodd"
            d="M42.7 9.13126L0 0V80.8078V82.1813V237H1281V82.1813V80.8078V13.6969L1238.3 20.5453C1195.6 27.3938 1110.2 41.0907 1024.8 43.3735C939.4 45.6563 854 36.525 768.6 25.111C759.111 23.8427 749.622 22.5463 740.133 21.2499C664.222 10.8786 588.311 0.50729 512.4 4.56563C472.212 6.71416 432.024 12.907 391.835 19.0998C346.624 26.0667 301.412 33.0337 256.2 34.2422C170.8 36.525 85.4 18.2625 42.7 9.13126Z"
            fill="url(#paint0_linear_100_566)"
        />
    </g>
    <defs>
        <filter
            id="filter0_d_100_566"
            x="-4"
            y="0"
            width="1289"
            height="245"
            filterUnits="userSpaceOnUse"
            color-interpolation-filters="sRGB"
        >
            <feFlood flood-opacity="0" result="BackgroundImageFix" />
            <feColorMatrix
                in="SourceAlpha"
                type="matrix"
                values="0 0 0 0 0 0 0 0 0 0 0 0 0 0 0 0 0 0 127 0"
                result="hardAlpha"
            />
            <feOffset dy="4" />
            <feGaussianBlur stdDeviation="2" />
            <feComposite in2="hardAlpha" operator="out" />
            <feColorMatrix
                type="matrix"
                values="0 0 0 0 0 0 0 0 0 0 0 0 0 0 0 0 0 0 0.25 0"
            />
            <feBlend
                mode="normal"
                in2="BackgroundImageFix"
                result="effect1_dropShadow_100_566"
            />
            <feBlend
                mode="normal"
                in="SourceGraphic"
                in2="effect1_dropShadow_100_566"
                result="shape"
            />
        </filter>
        <linearGradient
            id="paint0_linear_100_566"
            x1="696.446"
            y1="-34.7499"
            x2="695.139"
            y2="319.175"
            gradientUnits="userSpaceOnUse"
        >
            <stop stop-color="#E7442B" />
            <stop offset="0.66" stop-color="#F4835C" />
            <stop offset="0.89" stop-color="#FFB884" />
        </linearGradient>
    </defs>
</svg>