<svg width="1280" height="238" viewBox="0 0 1280 238" fill="none" xmlns="http://www.w3.org/2000/svg">
<g filter="url(#filter0_d_100_566)">
<path fill-rule="evenodd" clip-rule="evenodd" d="M40.7 9.13126L-2 0V80.8078V82.1813V237H1279V82.1813V80.8078V13.6969L1236.3 20.5453C1193.6 27.3938 1108.2 41.0907 1022.8 43.3735C937.4 45.6563 852 36.525 766.6 25.111C757.111 23.8427 747.622 22.5463 738.133 21.2499C662.222 10.8786 586.311 0.50729 510.4 4.56563C470.212 6.71416 430.024 12.907 389.835 19.0998C344.624 26.0667 299.412 33.0337 254.2 34.2422C168.8 36.525 83.4 18.2625 40.7 9.13126Z" fill="url(#paint0_linear_100_566)"/>
</g>
<defs>
<filter id="filter0_d_100_566" x="-6" y="0" width="1289" height="245" filterUnits="userSpaceOnUse" color-interpolation-filters="sRGB">
<feFlood flood-opacity="0" result="BackgroundImageFix"/>
<feColorMatrix in="SourceAlpha" type="matrix" values="0 0 0 0 0 0 0 0 0 0 0 0 0 0 0 0 0 0 127 0" result="hardAlpha"/>
<feOffset dy="4"/>
<feGaussianBlur stdDeviation="2"/>
<feComposite in2="hardAlpha" operator="out"/>
<feColorMatrix type="matrix" values="0 0 0 0 0 0 0 0 0 0 0 0 0 0 0 0 0 0 0.25 0"/>
<feBlend mode="normal" in2="BackgroundImageFix" result="effect1_dropShadow_100_566"/>
<feBlend mode="normal" in="SourceGraphic" in2="effect1_dropShadow_100_566" result="shape"/>
</filter>
<linearGradient id="paint0_linear_100_566" x1="694.446" y1="-34.7499" x2="693.139" y2="319.175" gradientUnits="userSpaceOnUse">
<stop stop-color="#E7442B"/>
<stop offset="0.66" stop-color="#F4835C"/>
<stop offset="0.89" stop-color="#FFB884"/>
</linearGradient>
</defs>
</svg>
