<svg width="45" height="45" viewBox="0 0 45 45" fill="none" xmlns="http://www.w3.org/2000/svg">
<path d="M35.625 5.625H27.7875C27 3.45 24.9375 1.875 22.5 1.875C20.0625 1.875 18 3.45 17.2125 5.625H9.375C7.3125 5.625 5.625 7.3125 5.625 9.375V35.625C5.625 37.6875 7.3125 39.375 9.375 39.375H35.625C37.6875 39.375 39.375 37.6875 39.375 35.625V9.375C39.375 7.3125 37.6875 5.625 35.625 5.625ZM22.5 5.625C23.5312 5.625 24.375 6.46875 24.375 7.5C24.375 8.53125 23.5312 9.375 22.5 9.375C21.4688 9.375 20.625 8.53125 20.625 7.5C20.625 6.46875 21.4688 5.625 22.5 5.625ZM22.5 13.125C25.6125 13.125 28.125 15.6375 28.125 18.75C28.125 21.8625 25.6125 24.375 22.5 24.375C19.3875 24.375 16.875 21.8625 16.875 18.75C16.875 15.6375 19.3875 13.125 22.5 13.125ZM33.75 35.625H11.25V33C11.25 29.25 18.75 27.1875 22.5 27.1875C26.25 27.1875 33.75 29.25 33.75 33V35.625Z" fill="#FEFDFD"/>
</svg>
