<svg width="45" height="45" viewBox="0 0 45 45" fill="none" xmlns="http://www.w3.org/2000/svg">
<path d="M31.875 20.625V5.625H13.125V13.125H5.625V39.375H20.625V31.875H24.375V39.375H39.375V20.625H31.875ZM13.125 35.625H9.375V31.875H13.125V35.625ZM13.125 28.125H9.375V24.375H13.125V28.125ZM13.125 20.625H9.375V16.875H13.125V20.625ZM20.625 28.125H16.875V24.375H20.625V28.125ZM20.625 20.625H16.875V16.875H20.625V20.625ZM20.625 13.125H16.875V9.375H20.625V13.125ZM28.125 28.125H24.375V24.375H28.125V28.125ZM28.125 20.625H24.375V16.875H28.125V20.625ZM28.125 13.125H24.375V9.375H28.125V13.125ZM35.625 35.625H31.875V31.875H35.625V35.625ZM35.625 28.125H31.875V24.375H35.625V28.125Z" fill="#FEFDFD"/>
</svg>
