<svg width="1280" height="1230" viewBox="0 0 1280 1230" fill="none" xmlns="http://www.w3.org/2000/svg">
<g filter="url(#filter0_d_78_88)">
<path fill-rule="evenodd" clip-rule="evenodd" d="M0 0L42.7 16.837C85.4 33.6739 170.8 67.3479 256.2 63.1386C301.412 60.9102 346.624 48.064 391.835 35.2178C432.024 23.799 472.212 12.3801 512.4 8.41848C588.311 0.935392 664.222 20.0588 740.133 39.1823C749.622 41.5727 759.111 43.9632 768.6 46.3016C854 67.3479 939.4 84.1848 1024.8 79.9756C1110.2 75.7663 1195.6 50.5109 1238.3 37.8832L1281 25.2554V148.502V151.533V995.065V1150.64L1227.96 1162.76L1225.04 1163.47C1170.16 1176.82 1065.94 1202.16 960.75 1202.16C913.538 1202.16 866.52 1197.05 819.525 1191.95C759.929 1185.48 700.371 1179.01 640.5 1182.97C595.372 1185.52 550.421 1193.82 505.498 1202.11C443.826 1213.49 382.205 1224.86 320.25 1221.35C219.201 1215.63 119.044 1168.53 62.6654 1142.02C59.2982 1140.44 56.0872 1138.93 53.0414 1137.51L0 1111.24V995.065V151.533V148.502V0Z" fill="url(#paint0_linear_78_88)"/>
</g>
<defs>
<filter id="filter0_d_78_88" x="-4" y="0" width="1289" height="1230" filterUnits="userSpaceOnUse" color-interpolation-filters="sRGB">
<feFlood flood-opacity="0" result="BackgroundImageFix"/>
<feColorMatrix in="SourceAlpha" type="matrix" values="0 0 0 0 0 0 0 0 0 0 0 0 0 0 0 0 0 0 127 0" result="hardAlpha"/>
<feOffset dy="4"/>
<feGaussianBlur stdDeviation="2"/>
<feComposite in2="hardAlpha" operator="out"/>
<feColorMatrix type="matrix" values="0 0 0 0 0 0 0 0 0 0 0 0 0 0 0 0 0 0 0.25 0"/>
<feBlend mode="normal" in2="BackgroundImageFix" result="effect1_dropShadow_78_88"/>
<feBlend mode="normal" in="SourceGraphic" in2="effect1_dropShadow_78_88" result="shape"/>
</filter>
<linearGradient id="paint0_linear_78_88" x1="696.446" y1="-78.6876" x2="696.446" y2="1234.97" gradientUnits="userSpaceOnUse">
<stop stop-color="#E7442B"/>
<stop offset="0.66" stop-color="#F4835C"/>
<stop offset="0.89" stop-color="#FFB884"/>
</linearGradient>
</defs>
</svg>
