<svg width="1280" height="152" viewBox="0 0 1280 152" fill="none" xmlns="http://www.w3.org/2000/svg">
<path fill-rule="evenodd" clip-rule="evenodd" d="M0 0L42.7 16.837C85.4 33.6739 170.8 67.3479 256.2 63.1386C341.6 58.9294 427 16.837 512.4 8.41848C597.8 0 683.2 25.2554 768.6 46.3016C854 67.3479 939.4 84.1848 1024.8 79.9756C1110.2 75.7663 1195.6 50.5109 1238.3 37.8832L1281 25.2554V151.533H1238.3C1195.6 151.533 1110.2 151.533 1024.8 151.533C939.4 151.533 854 151.533 768.6 151.533C683.2 151.533 597.8 151.533 512.4 151.533C427 151.533 341.6 151.533 256.2 151.533C170.8 151.533 85.4 151.533 42.7 151.533H0V0Z" fill="#E7442B"/>
</svg>
